HIERARCHY
ROOT Hips
{
 OFFSET 0.000000 0.000000 0.000000
 CHANNELS 6 Xposition Yposition Zposition Yrotation Xrotation Zrotation
 JOINT Chest
 {
  OFFSET 0.000000 9.588913 -0.003946
  CHANNELS 3 Yrotation Xrotation Zrotation
  JOINT Chest2
  {
   OFFSET 0.000000 9.541882 0.008053
   CHANNELS 3 Yrotation Xrotation Zrotation
   JOINT Chest3
   {
    OFFSET 0.000000 9.501360 0.000000
    CHANNELS 3 Yrotation Xrotation Zrotation
    JOINT Chest4
    {
     OFFSET 0.000000 9.491660 0.000000
     CHANNELS 3 Yrotation Xrotation Zrotation
     JOINT Neck
     {
      OFFSET 0.000000 14.331917 0.000000
      CHANNELS 3 Yrotation Xrotation Zrotation
      JOINT Head
      {
       OFFSET 0.000000 8.884799 0.017034
       CHANNELS 3 Yrotation Xrotation Zrotation
       End Site
       {
        OFFSET 0.000000 16.896195 0.008993
       }
      }
     }
     JOINT RightCollar
     {
      OFFSET -2.923010 9.499495 0.000000
      CHANNELS 3 Yrotation Xrotation Zrotation
      JOINT RightShoulder
      {
       OFFSET -13.795216 0.000000 0.000000
       CHANNELS 3 Yrotation Xrotation Zrotation
       JOINT RightElbow
       {
        OFFSET -30.272209 0.000000 0.000000
        CHANNELS 3 Yrotation Xrotation Zrotation
        JOINT RightWrist
        {
         OFFSET -24.478199 0.000000 0.000000
         CHANNELS 3 Yrotation Xrotation Zrotation
         End Site
         {
          OFFSET -18.090752 0.000000 0.000000
         }
        }
       }
      }
     }
     JOINT LeftCollar
     {
      OFFSET 2.923010 9.499495 0.000000
      CHANNELS 3 Yrotation Xrotation Zrotation
      JOINT LeftShoulder
      {
       OFFSET 13.795216 0.000000 0.000000
       CHANNELS 3 Yrotation Xrotation Zrotation
       JOINT LeftElbow
       {
        OFFSET 30.272209 0.000000 0.000000
        CHANNELS 3 Yrotation Xrotation Zrotation
        JOINT LeftWrist
        {
         OFFSET 24.478199 0.000000 0.000000
         CHANNELS 3 Yrotation Xrotation Zrotation
         End Site
         {
          OFFSET 18.090752 0.000000 0.000000
         }
        }
       }
      }
     }
    }
   }
  }
 }
 JOINT RightHip
 {
  OFFSET -7.826875 0.019532 0.001973
  CHANNELS 3 Yrotation Xrotation Zrotation
  JOINT RightKnee
  {
   OFFSET 0.000000 -40.546152 -0.001885
   CHANNELS 3 Yrotation Xrotation Zrotation
   JOINT RightAnkle
   {
    OFFSET 0.000000 -39.417092 -0.003189
    CHANNELS 3 Yrotation Xrotation Zrotation
    JOINT RightToe
    {
     OFFSET 0.000000 -7.579396 17.243563
     CHANNELS 3 Yrotation Xrotation Zrotation
     End Site
     {
      OFFSET 0.000000 -1.500329 6.694466
     }
    }
   }
  }
 }
 JOINT LeftHip
 {
  OFFSET 7.826875 0.019532 0.001973
  CHANNELS 3 Yrotation Xrotation Zrotation
  JOINT LeftKnee
  {
   OFFSET 0.000000 -40.546152 -0.001885
   CHANNELS 3 Yrotation Xrotation Zrotation
   JOINT LeftAnkle
   {
    OFFSET 0.000000 -39.417092 -0.003189
    CHANNELS 3 Yrotation Xrotation Zrotation
    JOINT LeftToe
    {
     OFFSET 0.000000 -7.579396 17.243563
     CHANNELS 3 Yrotation Xrotation Zrotation
     End Site
     {
      OFFSET 0.000000 -1.500329 6.694466
     }
    }
   }
  }
 }
}
MOTION
Frames: 8
Frame Time: 0.008333
-14.449352 89.105840 2.525205 -131.023721 -5.196572 -0.172670 1.157619 1.116799 -0.284503 0.665535 0.635069 -0.137355 0.831693 0.794082 -0.170542 0.665535 0.635069 -0.137355 -0.531660 21.255722 -0.498323 -0.453848 -3.106927 -0.410662 -2.175742 -2.596242 -0.977617 6.142719 0.123634 90.507171 3.480580 6.295934 1.964428 -0.512178 -1.768716 -2.297261 2.687132 -1.482964 2.169079 -8.744586 -1.010570 -90.297245 1.851804 7.470177 0.277051 1.899393 -5.845819 -2.093486 -4.812194 8.850174 0.388376 0.360264 1.617513 -0.957230 0.043792 -5.231149 0.144610 0.000409 -0.049302 0.010252 0.418063 7.665411 -0.892164 2.474765 1.340248 0.107017 1.373385 -3.837071 0.561223 0.002046 0.060224 0.014087
-14.448965 89.105772 2.537735 -131.045013 -5.217596 -0.172912 1.149049 1.143591 -0.279987 0.659814 0.650221 -0.135620 0.824540 0.813017 -0.168357 0.659814 0.650221 -0.135620 -0.585244 21.248275 -0.480474 -0.515108 -3.115351 -0.379377 -2.184783 -2.597250 -1.000915 6.168950 0.157625 90.456259 3.565596 6.431127 2.034133 -0.612874 -1.713548 -2.190698 2.688460 -1.501218 2.161918 -8.796982 -1.042386 -90.281797 1.854283 7.472188 0.270488 1.982142 -5.814412 -2.219661 -4.810366 8.856769 0.378092 0.368049 1.631828 -0.952835 0.045914 -5.232505 0.147669 0.000986 -0.047928 0.008982 0.406516 7.673409 -0.897154 2.483853 1.357392 0.098773 1.388358 -3.843309 0.573832 0.001605 0.059620 0.010594
-14.448226 89.105589 2.549521 -131.070643 -5.236588 -0.174025 1.141825 1.168766 -0.275079 0.654875 0.664700 -0.133855 0.818364 0.831110 -0.166133 0.654875 0.664700 -0.133855 -0.641096 21.245067 -0.465015 -0.578256 -3.118781 -0.350138 -2.196311 -2.598305 -1.023705 6.205228 0.187949 90.412014 3.627745 6.547174 2.089839 -0.698767 -1.654708 -2.090882 2.687680 -1.519234 2.156333 -8.835799 -1.070527 -90.265485 1.855392 7.476646 0.256184 2.068214 -5.771094 -2.353345 -4.804312 8.862336 0.370342 0.378824 1.643613 -0.949745 0.045911 -5.232327 0.150704 0.001439 -0.046664 0.008185 0.396112 7.680834 -0.900927 2.497376 1.373118 0.090914 1.402087 -3.850729 0.586043 0.001602 0.059699 0.007458
-14.446940 89.105321 2.560400 -131.100821 -5.253094 -0.177766 1.135900 1.192146 -0.268802 0.650651 0.678252 -0.131369 0.813086 0.848044 -0.163010 0.650652 0.678252 -0.131369 -0.699120 21.246116 -0.453204 -0.642909 -3.117190 -0.324308 -2.206437 -2.599792 -1.046168 6.244906 0.215180 90.372843 3.667567 6.649144 2.133753 -0.769012 -1.602224 -2.002941 2.684645 -1.534439 2.152438 -8.859520 -1.098338 -90.247523 1.857309 7.491282 0.237317 2.156236 -5.726256 -2.485632 -4.794332 8.864747 0.366485 0.387610 1.656160 -0.946980 0.049933 -5.231247 0.152203 0.001807 -0.046266 0.008315 0.391036 7.687282 -0.901498 2.511749 1.387488 0.084861 1.413826 -3.859736 0.595878 0.001910 0.060591 0.005363
-14.445448 89.105017 2.570280 -131.133661 -5.268785 -0.183793 1.130186 1.214769 -0.261973 0.646424 0.691440 -0.128274 0.807803 0.864523 -0.159126 0.646424 0.691440 -0.128274 -0.758524 21.250664 -0.444859 -0.708264 -3.111464 -0.301871 -2.210314 -2.602479 -1.066915 6.280117 0.238739 90.337579 3.687162 6.742575 2.166153 -0.825902 -1.559671 -1.929382 2.681616 -1.547655 2.150991 -8.872627 -1.127050 -90.226169 1.861083 7.521608 0.218577 2.244577 -5.685051 -2.607923 -4.782945 8.866484 0.364843 0.394644 1.668533 -0.942932 0.058281 -5.229437 0.152110 0.002556 -0.046499 0.008722 0.390895 7.693510 -0.899035 2.523689 1.402303 0.079900 1.425214 -3.869999 0.605072 0.002084 0.061365 0.003161
-14.443888 89.104667 2.579526 -131.167745 -5.282609 -0.190431 1.125029 1.236027 -0.255825 0.642524 0.703798 -0.125099 0.802930 0.879963 -0.155142 0.642524 0.703798 -0.125099 -0.818952 21.258645 -0.438759 -0.774224 -3.101686 -0.281604 -2.209198 -2.604239 -1.084805 6.309324 0.257636 90.304974 3.688011 6.825758 2.188522 -0.871260 -1.526324 -1.869998 2.677035 -1.558320 2.151212 -8.884755 -1.154775 -90.201846 1.866693 7.569121 0.206491 2.326063 -5.649005 -2.712641 -4.769012 8.867550 0.363705 0.401939 1.678541 -0.937306 0.065750 -5.226499 0.152152 0.003016 -0.046778 0.008173 0.393766 7.698582 -0.895678 2.533653 1.416664 0.074676 1.437923 -3.880209 0.617290 0.001870 0.061701 -0.000881
-14.440889 89.104294 2.586234 -131.202316 -5.295751 -0.211923 1.119409 1.255582 -0.234365 0.639154 0.715274 -0.121989 0.798720 0.894301 -0.151242 0.639154 0.715274 -0.121989 -0.879915 21.269750 -0.435068 -0.840232 -3.088218 -0.263793 -2.205731 -2.603603 -1.100908 6.337014 0.272213 90.274201 3.669861 6.893647 2.202254 -0.903937 -1.501259 -1.826895 2.669880 -1.566957 2.151649 -8.900990 -1.179460 -90.178633 1.874630 7.631609 0.205956 2.397103 -5.622419 -2.796686 -4.749168 8.871955 0.380121 0.407303 1.689576 -0.931063 0.072720 -5.246522 0.151966 0.002121 -0.027982 0.005721 0.400167 7.704238 -0.875408 2.543437 1.427652 0.068659 1.452341 -3.869869 0.631190 0.000901 0.043681 -0.006431
-14.440306 89.103910 2.594061 -131.241317 -5.311146 -0.216272 1.115562 1.275738 -0.228525 0.635846 0.726849 -0.118678 0.794588 0.908764 -0.147089 0.635846 0.726849 -0.118678 -0.939366 21.282050 -0.434380 -0.903958 -3.073319 -0.249535 -2.202762 -2.601958 -1.116046 6.367912 0.281569 90.245094 3.633168 6.943878 2.208367 -0.926011 -1.483877 -1.802524 2.663864 -1.577743 2.149361 -8.923026 -1.200127 -90.156944 1.888795 7.700901 0.217664 2.457111 -5.596618 -2.863889 -4.726194 8.873003 0.376372 0.410394 1.701255 -0.922074 0.079371 -5.244064 0.153305 0.002135 -0.028250 0.003105 0.409016 7.715629 -0.874049 2.552797 1.437429 0.062614 1.465363 -3.877487 0.648699 0.000526 0.041974 -0.012192
